<svg width="31" height="31" fill="none" xmlns="http://www.w3.org/2000/svg"><path fill-rule="evenodd" clip-rule="evenodd" d="M15.774 30.509c8.32 0 15.063-6.716 15.063-15 0-8.284-6.743-15-15.063-15-8.318 0-15.062 6.716-15.062 15 0 1.528.229 3.003.655 4.392.11.019.285.064.542.138l-.4-6.272c0-.115.194-.17.372-.221.098-.028.191-.054.245-.088.145-.092 3.137.996 3.296 1.068l3.826 1.723a4.932 4.932 0 013.332-.702l3.477-4.222c.043-3.37 2.803-6.084 6.198-6.089 3.172.034 5.801 2.44 6.102 5.574.32 3.389-2.18 6.392-5.589 6.715l-5.791 4.116a5.121 5.121 0 01-3.405 3.87c-2.687.905-5.607-.53-6.513-3.206l-2.014-.665c-.15-.047-2.891-1.182-3.634-1.6a15.063 15.063 0 0014.364 10.47zm9.58-19.112a3.09 3.09 0 01-3.099 3.08 3.09 3.09 0 01-3.1-3.08 3.09 3.09 0 013.1-3.08 3.09 3.09 0 013.1 3.08zm-1.03 0a2.062 2.062 0 01-2.068 2.056 2.062 2.062 0 01-2.068-2.056c0-1.135.926-2.055 2.068-2.055s2.067.92 2.067 2.055zM10.58 23.412c.417.202.877.308 1.342.308.353 0 .697-.058 1.036-.168a3.074 3.074 0 00.33-5.685.518.518 0 00-.693.236.512.512 0 00.237.688 2.045 2.045 0 01.988 2.816 2.07 2.07 0 01-2.784.88.518.518 0 00-.693.237.512.512 0 00.237.688z" fill="#FFB548"/></svg>