<svg width="31" height="31" fill="none" xmlns="http://www.w3.org/2000/svg"><path d="M10.551 3.158a22.244 22.244 0 014.56 2.444c.164.112.351.17.54.17a.963.963 0 00.539-.17 22.271 22.271 0 014.559-2.45.935.935 0 00.593-.878.925.925 0 00-.605-.868C17.57.205 13.731.205 10.57 1.406a.944.944 0 00-.018 1.752z" fill="#FFB548"/><path d="M24.159 3.164a.94.94 0 00-1.004-.041 40.987 40.987 0 00-5.052 3.434.942.942 0 00-.064 1.412c3.32 3.16 7.92 12.847 8.977 17.3-2.288-3.867-7.393-12.969-10.732-16.08a.942.942 0 00-1.279 0C11.661 12.3 6.574 21.406 4.285 25.28c1.056-4.453 5.645-14.152 8.966-17.31a.934.934 0 00-.059-1.412A41.436 41.436 0 008.14 3.123a.941.941 0 00-1.003.04A14.992 14.992 0 00.624 15.507a14.85 14.85 0 003.661 9.775 14.897 14.897 0 0011.36 5.228c4.395 0 8.537-1.905 11.371-5.234a14.848 14.848 0 003.65-9.769 15 15 0 00-6.507-12.342z" fill="#FFB548"/></svg>